<?xml version="1.0" encoding="UTF-8"?>
<svg xmlns="http://www.w3.org/2000/svg" viewBox="0 0 1280 560" role="img" aria-labelledby="title desc">
<title id="title">Home benefits grid</title>
<desc id="desc">Four benefit cards in a 2x2 grid</desc>
<rect width="1280" height="560" fill="#fafaf9"/>
<text x="40" y="48" font-family="Inter, system-ui, sans-serif" font-size="24" font-weight="600" fill="#1f2937">Benefits</text>
<text x="40" y="76" font-family="Inter, system-ui, sans-serif" font-size="14" fill="#6b7280">What AI-friendly documentation delivers</text>
<rect x="40" y="100" width="580" height="180" fill="#ffffff" stroke="#e5e7eb" rx="8"/>
<rect x="56" y="116" width="32" height="32" fill="#fafaf9" stroke="#e5e7eb" rx="4"/>
<text x="56" y="164" font-family="Inter, system-ui, sans-serif" font-size="11" fill="#6b7280">Rapid documentation development</text>
<text x="56" y="181" font-family="Inter, system-ui, sans-serif" font-size="11" fill="#6b7280">Short description blurb for this benefit.</text>
<rect x="660" y="100" width="580" height="180" fill="#ffffff" stroke="#e5e7eb" rx="8"/>
<rect x="676" y="116" width="32" height="32" fill="#fafaf9" stroke="#e5e7eb" rx="4"/>
<text x="676" y="164" font-family="Inter, system-ui, sans-serif" font-size="11" fill="#6b7280">Test coverage generation</text>
<text x="676" y="181" font-family="Inter, system-ui, sans-serif" font-size="11" fill="#6b7280">Short description blurb for this benefit.</text>
<rect x="40" y="300" width="580" height="180" fill="#ffffff" stroke="#e5e7eb" rx="8"/>
<rect x="56" y="316" width="32" height="32" fill="#fafaf9" stroke="#e5e7eb" rx="4"/>
<text x="56" y="364" font-family="Inter, system-ui, sans-serif" font-size="11" fill="#6b7280">Higher software quality</text>
<text x="56" y="381" font-family="Inter, system-ui, sans-serif" font-size="11" fill="#6b7280">Short description blurb for this benefit.</text>
<rect x="660" y="300" width="580" height="180" fill="#ffffff" stroke="#e5e7eb" rx="8"/>
<rect x="676" y="316" width="32" height="32" fill="#fafaf9" stroke="#e5e7eb" rx="4"/>
<text x="676" y="364" font-family="Inter, system-ui, sans-serif" font-size="11" fill="#6b7280">Legacy modernization</text>
<text x="676" y="381" font-family="Inter, system-ui, sans-serif" font-size="11" fill="#6b7280">Short description blurb for this benefit.</text>
</svg>
